<mxfile host="app.diagrams.net" modified="2024-06-26T06:53:25.870Z" agent="Mozilla/5.0 (Windows NT 10.0; Win64; x64) AppleWebKit/537.36 (KHTML, like Gecko) Chrome/126.0.0.0 Safari/537.36" version="24.6.2" etag="uAXpsrPoX6N5K23AYqd-" type="device">
  <diagram id="X54W6WDpiWwpCvBLdQSt" name="페이지-1">
    <mxGraphModel dx="2845" dy="1369" grid="1" gridSize="10" guides="1" tooltips="1" connect="1" arrows="1" fold="1" page="1" pageScale="1" pageWidth="827" pageHeight="1169" math="0" shadow="0">
      <root>
        <mxCell id="0" />
        <mxCell id="1" parent="0" />
        <mxCell id="s_LERoi7OjflqJZzMfnl-1" value="ControllerBean" style="swimlane;fontStyle=1;align=center;verticalAlign=top;childLayout=stackLayout;horizontal=1;startSize=26;horizontalStack=0;resizeParent=1;resizeParentMax=0;resizeLast=0;collapsible=1;marginBottom=0;whiteSpace=wrap;html=1;" vertex="1" parent="1">
          <mxGeometry x="-85" y="90" width="430" height="180" as="geometry" />
        </mxCell>
        <mxCell id="s_LERoi7OjflqJZzMfnl-2" value="&lt;div&gt;+ mainPageSerivce : MainPageService&lt;/div&gt;&lt;div&gt;+ watingRoomService : WatingRoomService&lt;/div&gt;&lt;div&gt;+ chatRoomService : ChatRoomService&lt;/div&gt;&lt;div&gt;+ createRoomService : CreateRoomService&lt;/div&gt;" style="text;strokeColor=none;fillColor=none;align=left;verticalAlign=top;spacingLeft=4;spacingRight=4;overflow=hidden;rotatable=0;points=[[0,0.5],[1,0.5]];portConstraint=eastwest;whiteSpace=wrap;html=1;" vertex="1" parent="s_LERoi7OjflqJZzMfnl-1">
          <mxGeometry y="26" width="430" height="64" as="geometry" />
        </mxCell>
        <mxCell id="s_LERoi7OjflqJZzMfnl-3" value="" style="line;strokeWidth=1;fillColor=none;align=left;verticalAlign=middle;spacingTop=-1;spacingLeft=3;spacingRight=3;rotatable=0;labelPosition=right;points=[];portConstraint=eastwest;strokeColor=inherit;" vertex="1" parent="s_LERoi7OjflqJZzMfnl-1">
          <mxGeometry y="90" width="430" height="8" as="geometry" />
        </mxCell>
        <mxCell id="s_LERoi7OjflqJZzMfnl-4" value="+ loadMainPage(void): MainPageVO&lt;div&gt;+ loadWatingPage(void) :&amp;nbsp;&lt;span style=&quot;background-color: initial;&quot;&gt;List&amp;lt;WatingRoomVO&amp;gt;&lt;/span&gt;&lt;/div&gt;&lt;div&gt;&lt;span style=&quot;background-color: initial;&quot;&gt;+ loadChatRoom(int roomNumber) : ChatInfoVO&lt;/span&gt;&lt;/div&gt;&lt;div&gt;&lt;span style=&quot;background-color: initial;&quot;&gt;+ inputChatValue(String userName, String userChat) : ChatValueVO&lt;/span&gt;&lt;/div&gt;&lt;div&gt;&lt;span style=&quot;background-color: initial;&quot;&gt;+ createChatRoom(String roomName, int roomMax) : void&lt;/span&gt;&lt;/div&gt;" style="text;strokeColor=none;fillColor=none;align=left;verticalAlign=top;spacingLeft=4;spacingRight=4;overflow=hidden;rotatable=0;points=[[0,0.5],[1,0.5]];portConstraint=eastwest;whiteSpace=wrap;html=1;" vertex="1" parent="s_LERoi7OjflqJZzMfnl-1">
          <mxGeometry y="98" width="430" height="82" as="geometry" />
        </mxCell>
        <mxCell id="s_LERoi7OjflqJZzMfnl-5" value="MainPageService" style="swimlane;fontStyle=1;align=center;verticalAlign=top;childLayout=stackLayout;horizontal=1;startSize=26;horizontalStack=0;resizeParent=1;resizeParentMax=0;resizeLast=0;collapsible=1;marginBottom=0;whiteSpace=wrap;html=1;" vertex="1" parent="1">
          <mxGeometry x="-320" y="360" width="320" height="86" as="geometry" />
        </mxCell>
        <mxCell id="s_LERoi7OjflqJZzMfnl-6" value="+ chatRepo : ChatRepo" style="text;strokeColor=none;fillColor=none;align=left;verticalAlign=top;spacingLeft=4;spacingRight=4;overflow=hidden;rotatable=0;points=[[0,0.5],[1,0.5]];portConstraint=eastwest;whiteSpace=wrap;html=1;" vertex="1" parent="s_LERoi7OjflqJZzMfnl-5">
          <mxGeometry y="26" width="320" height="26" as="geometry" />
        </mxCell>
        <mxCell id="s_LERoi7OjflqJZzMfnl-7" value="" style="line;strokeWidth=1;fillColor=none;align=left;verticalAlign=middle;spacingTop=-1;spacingLeft=3;spacingRight=3;rotatable=0;labelPosition=right;points=[];portConstraint=eastwest;strokeColor=inherit;" vertex="1" parent="s_LERoi7OjflqJZzMfnl-5">
          <mxGeometry y="52" width="320" height="8" as="geometry" />
        </mxCell>
        <mxCell id="s_LERoi7OjflqJZzMfnl-8" value="+ loadMainInfo(void) : MainPageVO" style="text;strokeColor=none;fillColor=none;align=left;verticalAlign=top;spacingLeft=4;spacingRight=4;overflow=hidden;rotatable=0;points=[[0,0.5],[1,0.5]];portConstraint=eastwest;whiteSpace=wrap;html=1;" vertex="1" parent="s_LERoi7OjflqJZzMfnl-5">
          <mxGeometry y="60" width="320" height="26" as="geometry" />
        </mxCell>
        <mxCell id="s_LERoi7OjflqJZzMfnl-9" value="MainPageVO" style="swimlane;fontStyle=1;align=center;verticalAlign=top;childLayout=stackLayout;horizontal=1;startSize=26;horizontalStack=0;resizeParent=1;resizeParentMax=0;resizeLast=0;collapsible=1;marginBottom=0;whiteSpace=wrap;html=1;" vertex="1" parent="1">
          <mxGeometry x="-450" y="110" width="250" height="138" as="geometry" />
        </mxCell>
        <mxCell id="s_LERoi7OjflqJZzMfnl-10" value="+ totalRoom : int&lt;div&gt;+ totalUser : int&lt;/div&gt;" style="text;strokeColor=none;fillColor=none;align=left;verticalAlign=top;spacingLeft=4;spacingRight=4;overflow=hidden;rotatable=0;points=[[0,0.5],[1,0.5]];portConstraint=eastwest;whiteSpace=wrap;html=1;" vertex="1" parent="s_LERoi7OjflqJZzMfnl-9">
          <mxGeometry y="26" width="250" height="34" as="geometry" />
        </mxCell>
        <mxCell id="s_LERoi7OjflqJZzMfnl-11" value="" style="line;strokeWidth=1;fillColor=none;align=left;verticalAlign=middle;spacingTop=-1;spacingLeft=3;spacingRight=3;rotatable=0;labelPosition=right;points=[];portConstraint=eastwest;strokeColor=inherit;" vertex="1" parent="s_LERoi7OjflqJZzMfnl-9">
          <mxGeometry y="60" width="250" height="8" as="geometry" />
        </mxCell>
        <mxCell id="s_LERoi7OjflqJZzMfnl-12" value="+ setTotalRoom(int totalRoom): void&lt;div&gt;+ setTotalUser(int totalUser): void&lt;/div&gt;&lt;div&gt;+ getTotalRoom(void) : int&lt;/div&gt;&lt;div&gt;+ getUser(void) : int&lt;br&gt;&lt;/div&gt;" style="text;strokeColor=none;fillColor=none;align=left;verticalAlign=top;spacingLeft=4;spacingRight=4;overflow=hidden;rotatable=0;points=[[0,0.5],[1,0.5]];portConstraint=eastwest;whiteSpace=wrap;html=1;" vertex="1" parent="s_LERoi7OjflqJZzMfnl-9">
          <mxGeometry y="68" width="250" height="70" as="geometry" />
        </mxCell>
        <mxCell id="s_LERoi7OjflqJZzMfnl-13" value="ChatRepo" style="swimlane;fontStyle=1;align=center;verticalAlign=top;childLayout=stackLayout;horizontal=1;startSize=26;horizontalStack=0;resizeParent=1;resizeParentMax=0;resizeLast=0;collapsible=1;marginBottom=0;whiteSpace=wrap;html=1;" vertex="1" parent="1">
          <mxGeometry x="250.32999999999998" y="498" width="330" height="150" as="geometry" />
        </mxCell>
        <mxCell id="s_LERoi7OjflqJZzMfnl-14" value="+ jdbcTemplate : JdbcTemplate" style="text;strokeColor=none;fillColor=none;align=left;verticalAlign=top;spacingLeft=4;spacingRight=4;overflow=hidden;rotatable=0;points=[[0,0.5],[1,0.5]];portConstraint=eastwest;whiteSpace=wrap;html=1;" vertex="1" parent="s_LERoi7OjflqJZzMfnl-13">
          <mxGeometry y="26" width="330" height="26" as="geometry" />
        </mxCell>
        <mxCell id="s_LERoi7OjflqJZzMfnl-15" value="" style="line;strokeWidth=1;fillColor=none;align=left;verticalAlign=middle;spacingTop=-1;spacingLeft=3;spacingRight=3;rotatable=0;labelPosition=right;points=[];portConstraint=eastwest;strokeColor=inherit;" vertex="1" parent="s_LERoi7OjflqJZzMfnl-13">
          <mxGeometry y="52" width="330" height="8" as="geometry" />
        </mxCell>
        <mxCell id="s_LERoi7OjflqJZzMfnl-16" value="+ getMain(void): MainVO&lt;div&gt;+ getWatingRoom(void): WatingRoomVO&lt;br&gt;&lt;/div&gt;&lt;div&gt;+ inputChatValue(String chatValue, int roomNumber) : void&lt;/div&gt;&lt;div&gt;+ outputChatValue(void) : ChatValueVO&lt;/div&gt;&lt;div&gt;+ createRoom(String roomName, int roomMax) : void&lt;/div&gt;" style="text;strokeColor=none;fillColor=none;align=left;verticalAlign=top;spacingLeft=4;spacingRight=4;overflow=hidden;rotatable=0;points=[[0,0.5],[1,0.5]];portConstraint=eastwest;whiteSpace=wrap;html=1;" vertex="1" parent="s_LERoi7OjflqJZzMfnl-13">
          <mxGeometry y="60" width="330" height="90" as="geometry" />
        </mxCell>
        <mxCell id="s_LERoi7OjflqJZzMfnl-22" value="&lt;p style=&quot;margin:0px;margin-top:4px;text-align:center;&quot;&gt;&lt;i&gt;&amp;lt;&amp;lt;Interface&amp;gt;&amp;gt;&lt;/i&gt;&lt;br&gt;&lt;b&gt;IMainPageSerivce&lt;/b&gt;&lt;/p&gt;&lt;hr size=&quot;1&quot; style=&quot;border-style:solid;&quot;&gt;&lt;p style=&quot;margin:0px;margin-left:4px;&quot;&gt;&lt;br&gt;&lt;/p&gt;&lt;hr size=&quot;1&quot; style=&quot;border-style:solid;&quot;&gt;&lt;p style=&quot;margin:0px;margin-left:4px;&quot;&gt;+ loadMainInfo(void) : MainPageVO&lt;br&gt;&lt;/p&gt;" style="verticalAlign=top;align=left;overflow=fill;html=1;whiteSpace=wrap;" vertex="1" parent="1">
          <mxGeometry x="-670" y="360" width="300" height="90" as="geometry" />
        </mxCell>
        <mxCell id="s_LERoi7OjflqJZzMfnl-23" value="" style="endArrow=block;dashed=1;endFill=0;endSize=12;html=1;rounded=0;exitX=0;exitY=0.736;exitDx=0;exitDy=0;exitPerimeter=0;entryX=1;entryY=0.5;entryDx=0;entryDy=0;" edge="1" parent="1" source="s_LERoi7OjflqJZzMfnl-6" target="s_LERoi7OjflqJZzMfnl-22">
          <mxGeometry width="160" relative="1" as="geometry">
            <mxPoint x="-410" y="325" as="sourcePoint" />
            <mxPoint x="-250" y="325" as="targetPoint" />
          </mxGeometry>
        </mxCell>
        <mxCell id="s_LERoi7OjflqJZzMfnl-24" value="WatingRoomService" style="swimlane;fontStyle=1;align=center;verticalAlign=top;childLayout=stackLayout;horizontal=1;startSize=26;horizontalStack=0;resizeParent=1;resizeParentMax=0;resizeLast=0;collapsible=1;marginBottom=0;whiteSpace=wrap;html=1;" vertex="1" parent="1">
          <mxGeometry x="-320" y="485" width="320" height="86" as="geometry" />
        </mxCell>
        <mxCell id="s_LERoi7OjflqJZzMfnl-25" value="+ chatRepo : ChatRepo" style="text;strokeColor=none;fillColor=none;align=left;verticalAlign=top;spacingLeft=4;spacingRight=4;overflow=hidden;rotatable=0;points=[[0,0.5],[1,0.5]];portConstraint=eastwest;whiteSpace=wrap;html=1;" vertex="1" parent="s_LERoi7OjflqJZzMfnl-24">
          <mxGeometry y="26" width="320" height="26" as="geometry" />
        </mxCell>
        <mxCell id="s_LERoi7OjflqJZzMfnl-26" value="" style="line;strokeWidth=1;fillColor=none;align=left;verticalAlign=middle;spacingTop=-1;spacingLeft=3;spacingRight=3;rotatable=0;labelPosition=right;points=[];portConstraint=eastwest;strokeColor=inherit;" vertex="1" parent="s_LERoi7OjflqJZzMfnl-24">
          <mxGeometry y="52" width="320" height="8" as="geometry" />
        </mxCell>
        <mxCell id="s_LERoi7OjflqJZzMfnl-27" value="+ loadWatingRoom(void) : List&amp;lt;WatingRoomVO&amp;gt;" style="text;strokeColor=none;fillColor=none;align=left;verticalAlign=top;spacingLeft=4;spacingRight=4;overflow=hidden;rotatable=0;points=[[0,0.5],[1,0.5]];portConstraint=eastwest;whiteSpace=wrap;html=1;" vertex="1" parent="s_LERoi7OjflqJZzMfnl-24">
          <mxGeometry y="60" width="320" height="26" as="geometry" />
        </mxCell>
        <mxCell id="s_LERoi7OjflqJZzMfnl-28" value="&lt;p style=&quot;margin:0px;margin-top:4px;text-align:center;&quot;&gt;&lt;i&gt;&amp;lt;&amp;lt;Interface&amp;gt;&amp;gt;&lt;/i&gt;&lt;br&gt;&lt;b&gt;I&lt;/b&gt;&lt;span style=&quot;font-weight: 700; background-color: initial;&quot;&gt;WatingRoomService&lt;/span&gt;&lt;/p&gt;&lt;hr size=&quot;1&quot; style=&quot;border-style:solid;&quot;&gt;&lt;p style=&quot;margin:0px;margin-left:4px;&quot;&gt;&lt;br&gt;&lt;/p&gt;&lt;hr size=&quot;1&quot; style=&quot;border-style:solid;&quot;&gt;&lt;p style=&quot;margin:0px;margin-left:4px;&quot;&gt;+ loadWatingRoom(void): List&amp;lt;WatingRoomVO&amp;gt;&lt;br&gt;&lt;/p&gt;" style="verticalAlign=top;align=left;overflow=fill;html=1;whiteSpace=wrap;" vertex="1" parent="1">
          <mxGeometry x="-670" y="485" width="310" height="90" as="geometry" />
        </mxCell>
        <mxCell id="s_LERoi7OjflqJZzMfnl-29" value="" style="endArrow=block;dashed=1;endFill=0;endSize=12;html=1;rounded=0;entryX=1;entryY=0.5;entryDx=0;entryDy=0;" edge="1" parent="1" target="s_LERoi7OjflqJZzMfnl-28">
          <mxGeometry width="160" relative="1" as="geometry">
            <mxPoint x="-321" y="530" as="sourcePoint" />
            <mxPoint x="-250" y="445" as="targetPoint" />
          </mxGeometry>
        </mxCell>
        <mxCell id="s_LERoi7OjflqJZzMfnl-30" value="WatingRoomVO" style="swimlane;fontStyle=1;align=center;verticalAlign=top;childLayout=stackLayout;horizontal=1;startSize=26;horizontalStack=0;resizeParent=1;resizeParentMax=0;resizeLast=0;collapsible=1;marginBottom=0;whiteSpace=wrap;html=1;" vertex="1" parent="1">
          <mxGeometry x="-730" y="110" width="250" height="190" as="geometry" />
        </mxCell>
        <mxCell id="s_LERoi7OjflqJZzMfnl-31" value="+ roomNumber : int&lt;div&gt;+ roomTitle : String&lt;/div&gt;&lt;div&gt;+ roomUsers : int&lt;/div&gt;" style="text;strokeColor=none;fillColor=none;align=left;verticalAlign=top;spacingLeft=4;spacingRight=4;overflow=hidden;rotatable=0;points=[[0,0.5],[1,0.5]];portConstraint=eastwest;whiteSpace=wrap;html=1;" vertex="1" parent="s_LERoi7OjflqJZzMfnl-30">
          <mxGeometry y="26" width="250" height="54" as="geometry" />
        </mxCell>
        <mxCell id="s_LERoi7OjflqJZzMfnl-32" value="" style="line;strokeWidth=1;fillColor=none;align=left;verticalAlign=middle;spacingTop=-1;spacingLeft=3;spacingRight=3;rotatable=0;labelPosition=right;points=[];portConstraint=eastwest;strokeColor=inherit;" vertex="1" parent="s_LERoi7OjflqJZzMfnl-30">
          <mxGeometry y="80" width="250" height="8" as="geometry" />
        </mxCell>
        <mxCell id="s_LERoi7OjflqJZzMfnl-33" value="+ setroomNumber(int roomNumber): void&lt;div&gt;+ setroomTitle(String roomTitle): void&lt;/div&gt;&lt;div&gt;+ setroomUsers(int roomUsers): void&lt;br&gt;&lt;/div&gt;&lt;div&gt;+ getroomNumber(void) : int&lt;/div&gt;&lt;div&gt;+ getroomTitle(void) : String&lt;br&gt;&lt;/div&gt;&lt;div&gt;+ getroomUser(void) : int&lt;br&gt;&lt;/div&gt;" style="text;strokeColor=none;fillColor=none;align=left;verticalAlign=top;spacingLeft=4;spacingRight=4;overflow=hidden;rotatable=0;points=[[0,0.5],[1,0.5]];portConstraint=eastwest;whiteSpace=wrap;html=1;" vertex="1" parent="s_LERoi7OjflqJZzMfnl-30">
          <mxGeometry y="88" width="250" height="102" as="geometry" />
        </mxCell>
        <mxCell id="s_LERoi7OjflqJZzMfnl-35" value="ChatRoomService" style="swimlane;fontStyle=1;align=center;verticalAlign=top;childLayout=stackLayout;horizontal=1;startSize=26;horizontalStack=0;resizeParent=1;resizeParentMax=0;resizeLast=0;collapsible=1;marginBottom=0;whiteSpace=wrap;html=1;" vertex="1" parent="1">
          <mxGeometry x="-320" y="600" width="320" height="100" as="geometry" />
        </mxCell>
        <mxCell id="s_LERoi7OjflqJZzMfnl-36" value="+ chatRepo : ChatRepo" style="text;strokeColor=none;fillColor=none;align=left;verticalAlign=top;spacingLeft=4;spacingRight=4;overflow=hidden;rotatable=0;points=[[0,0.5],[1,0.5]];portConstraint=eastwest;whiteSpace=wrap;html=1;" vertex="1" parent="s_LERoi7OjflqJZzMfnl-35">
          <mxGeometry y="26" width="320" height="26" as="geometry" />
        </mxCell>
        <mxCell id="s_LERoi7OjflqJZzMfnl-37" value="" style="line;strokeWidth=1;fillColor=none;align=left;verticalAlign=middle;spacingTop=-1;spacingLeft=3;spacingRight=3;rotatable=0;labelPosition=right;points=[];portConstraint=eastwest;strokeColor=inherit;" vertex="1" parent="s_LERoi7OjflqJZzMfnl-35">
          <mxGeometry y="52" width="320" height="8" as="geometry" />
        </mxCell>
        <mxCell id="s_LERoi7OjflqJZzMfnl-38" value="&lt;div style=&quot;&quot;&gt;&lt;span style=&quot;background-color: initial;&quot;&gt;+ inChatRoom(int roomNumber) : ChatInfoVO&lt;/span&gt;&lt;/div&gt;&lt;div style=&quot;&quot;&gt;&lt;span style=&quot;background-color: initial;&quot;&gt;+ inputChatValue(ChatValueVO chatValue)&amp;nbsp;&lt;/span&gt;&lt;span style=&quot;background-color: initial;&quot;&gt;: void&lt;/span&gt;&lt;/div&gt;" style="text;strokeColor=none;fillColor=none;align=left;verticalAlign=top;spacingLeft=4;spacingRight=4;overflow=hidden;rotatable=0;points=[[0,0.5],[1,0.5]];portConstraint=eastwest;whiteSpace=wrap;html=1;" vertex="1" parent="s_LERoi7OjflqJZzMfnl-35">
          <mxGeometry y="60" width="320" height="40" as="geometry" />
        </mxCell>
        <mxCell id="s_LERoi7OjflqJZzMfnl-39" value="&lt;p style=&quot;margin:0px;margin-top:4px;text-align:center;&quot;&gt;&lt;i&gt;&amp;lt;&amp;lt;Interface&amp;gt;&amp;gt;&lt;/i&gt;&lt;br&gt;&lt;b&gt;IChat&lt;/b&gt;&lt;span style=&quot;font-weight: 700; background-color: initial;&quot;&gt;RoomService&lt;/span&gt;&lt;/p&gt;&lt;hr size=&quot;1&quot; style=&quot;border-style:solid;&quot;&gt;&lt;p style=&quot;margin:0px;margin-left:4px;&quot;&gt;&lt;br&gt;&lt;/p&gt;&lt;hr size=&quot;1&quot; style=&quot;border-style:solid;&quot;&gt;&lt;p style=&quot;margin:0px;margin-left:4px;&quot;&gt;&lt;span style=&quot;text-align: center; background-color: initial;&quot;&gt;+ inputChatValue(ChatValueVO chatValue)&lt;/span&gt;&lt;span style=&quot;text-align: center; background-color: initial;&quot;&gt;: void&lt;/span&gt;&lt;br&gt;&lt;/p&gt;" style="verticalAlign=top;align=left;overflow=fill;html=1;whiteSpace=wrap;" vertex="1" parent="1">
          <mxGeometry x="-670" y="600" width="310" height="90" as="geometry" />
        </mxCell>
        <mxCell id="s_LERoi7OjflqJZzMfnl-40" value="" style="endArrow=block;dashed=1;endFill=0;endSize=12;html=1;rounded=0;exitX=0;exitY=0.731;exitDx=0;exitDy=0;exitPerimeter=0;entryX=1;entryY=0.5;entryDx=0;entryDy=0;" edge="1" parent="1" source="s_LERoi7OjflqJZzMfnl-36" target="s_LERoi7OjflqJZzMfnl-39">
          <mxGeometry width="160" relative="1" as="geometry">
            <mxPoint x="-410" y="560" as="sourcePoint" />
            <mxPoint x="-250" y="560" as="targetPoint" />
          </mxGeometry>
        </mxCell>
        <mxCell id="s_LERoi7OjflqJZzMfnl-41" value="ChatInfoVO" style="swimlane;fontStyle=1;align=center;verticalAlign=top;childLayout=stackLayout;horizontal=1;startSize=26;horizontalStack=0;resizeParent=1;resizeParentMax=0;resizeLast=0;collapsible=1;marginBottom=0;whiteSpace=wrap;html=1;" vertex="1" parent="1">
          <mxGeometry x="74" y="880" width="250" height="150" as="geometry" />
        </mxCell>
        <mxCell id="s_LERoi7OjflqJZzMfnl-42" value="+ roomNumber : int&lt;div&gt;+ roomUsers : int&lt;/div&gt;" style="text;strokeColor=none;fillColor=none;align=left;verticalAlign=top;spacingLeft=4;spacingRight=4;overflow=hidden;rotatable=0;points=[[0,0.5],[1,0.5]];portConstraint=eastwest;whiteSpace=wrap;html=1;" vertex="1" parent="s_LERoi7OjflqJZzMfnl-41">
          <mxGeometry y="26" width="250" height="44" as="geometry" />
        </mxCell>
        <mxCell id="s_LERoi7OjflqJZzMfnl-43" value="" style="line;strokeWidth=1;fillColor=none;align=left;verticalAlign=middle;spacingTop=-1;spacingLeft=3;spacingRight=3;rotatable=0;labelPosition=right;points=[];portConstraint=eastwest;strokeColor=inherit;" vertex="1" parent="s_LERoi7OjflqJZzMfnl-41">
          <mxGeometry y="70" width="250" height="8" as="geometry" />
        </mxCell>
        <mxCell id="s_LERoi7OjflqJZzMfnl-44" value="+ setroomNumber(int roomNumber): void&lt;div&gt;+ setroomUsers(int roomUsers): void&lt;br&gt;&lt;/div&gt;&lt;div&gt;+ getroomNumber(void) : int&lt;/div&gt;&lt;div&gt;+ getroomUser(void) : int&lt;br&gt;&lt;/div&gt;" style="text;strokeColor=none;fillColor=none;align=left;verticalAlign=top;spacingLeft=4;spacingRight=4;overflow=hidden;rotatable=0;points=[[0,0.5],[1,0.5]];portConstraint=eastwest;whiteSpace=wrap;html=1;" vertex="1" parent="s_LERoi7OjflqJZzMfnl-41">
          <mxGeometry y="78" width="250" height="72" as="geometry" />
        </mxCell>
        <mxCell id="s_LERoi7OjflqJZzMfnl-45" value="ChatValueVO" style="swimlane;fontStyle=1;align=center;verticalAlign=top;childLayout=stackLayout;horizontal=1;startSize=26;horizontalStack=0;resizeParent=1;resizeParentMax=0;resizeLast=0;collapsible=1;marginBottom=0;whiteSpace=wrap;html=1;" vertex="1" parent="1">
          <mxGeometry x="364" y="880" width="250" height="150" as="geometry" />
        </mxCell>
        <mxCell id="s_LERoi7OjflqJZzMfnl-46" value="+ userName : String&lt;div&gt;+ userChat : String&lt;/div&gt;" style="text;strokeColor=none;fillColor=none;align=left;verticalAlign=top;spacingLeft=4;spacingRight=4;overflow=hidden;rotatable=0;points=[[0,0.5],[1,0.5]];portConstraint=eastwest;whiteSpace=wrap;html=1;" vertex="1" parent="s_LERoi7OjflqJZzMfnl-45">
          <mxGeometry y="26" width="250" height="44" as="geometry" />
        </mxCell>
        <mxCell id="s_LERoi7OjflqJZzMfnl-47" value="" style="line;strokeWidth=1;fillColor=none;align=left;verticalAlign=middle;spacingTop=-1;spacingLeft=3;spacingRight=3;rotatable=0;labelPosition=right;points=[];portConstraint=eastwest;strokeColor=inherit;" vertex="1" parent="s_LERoi7OjflqJZzMfnl-45">
          <mxGeometry y="70" width="250" height="8" as="geometry" />
        </mxCell>
        <mxCell id="s_LERoi7OjflqJZzMfnl-48" value="+ setuserName(String userName): void&lt;div&gt;+ setuserChat(String userChat): void&lt;br&gt;&lt;/div&gt;&lt;div&gt;+ getuserName(void) : String&lt;/div&gt;&lt;div&gt;+ getuserChat(void) : String&lt;br&gt;&lt;/div&gt;" style="text;strokeColor=none;fillColor=none;align=left;verticalAlign=top;spacingLeft=4;spacingRight=4;overflow=hidden;rotatable=0;points=[[0,0.5],[1,0.5]];portConstraint=eastwest;whiteSpace=wrap;html=1;" vertex="1" parent="s_LERoi7OjflqJZzMfnl-45">
          <mxGeometry y="78" width="250" height="72" as="geometry" />
        </mxCell>
        <mxCell id="s_LERoi7OjflqJZzMfnl-49" value="CreateRoomService" style="swimlane;fontStyle=1;align=center;verticalAlign=top;childLayout=stackLayout;horizontal=1;startSize=26;horizontalStack=0;resizeParent=1;resizeParentMax=0;resizeLast=0;collapsible=1;marginBottom=0;whiteSpace=wrap;html=1;" vertex="1" parent="1">
          <mxGeometry x="-320" y="739" width="320" height="86" as="geometry" />
        </mxCell>
        <mxCell id="s_LERoi7OjflqJZzMfnl-50" value="+ chatRepo : ChatRepo" style="text;strokeColor=none;fillColor=none;align=left;verticalAlign=top;spacingLeft=4;spacingRight=4;overflow=hidden;rotatable=0;points=[[0,0.5],[1,0.5]];portConstraint=eastwest;whiteSpace=wrap;html=1;" vertex="1" parent="s_LERoi7OjflqJZzMfnl-49">
          <mxGeometry y="26" width="320" height="26" as="geometry" />
        </mxCell>
        <mxCell id="s_LERoi7OjflqJZzMfnl-51" value="" style="line;strokeWidth=1;fillColor=none;align=left;verticalAlign=middle;spacingTop=-1;spacingLeft=3;spacingRight=3;rotatable=0;labelPosition=right;points=[];portConstraint=eastwest;strokeColor=inherit;" vertex="1" parent="s_LERoi7OjflqJZzMfnl-49">
          <mxGeometry y="52" width="320" height="8" as="geometry" />
        </mxCell>
        <mxCell id="s_LERoi7OjflqJZzMfnl-52" value="&lt;div style=&quot;text-align: center;&quot;&gt;&lt;span style=&quot;background-color: initial;&quot;&gt;+ createChatRoom(String roomName, roomMax)&amp;nbsp;&lt;/span&gt;&lt;span style=&quot;background-color: initial;&quot;&gt;: void&lt;/span&gt;&lt;/div&gt;" style="text;strokeColor=none;fillColor=none;align=left;verticalAlign=top;spacingLeft=4;spacingRight=4;overflow=hidden;rotatable=0;points=[[0,0.5],[1,0.5]];portConstraint=eastwest;whiteSpace=wrap;html=1;" vertex="1" parent="s_LERoi7OjflqJZzMfnl-49">
          <mxGeometry y="60" width="320" height="26" as="geometry" />
        </mxCell>
        <mxCell id="s_LERoi7OjflqJZzMfnl-53" value="&lt;p style=&quot;margin:0px;margin-top:4px;text-align:center;&quot;&gt;&lt;i&gt;&amp;lt;&amp;lt;Interface&amp;gt;&amp;gt;&lt;/i&gt;&lt;br&gt;&lt;b&gt;I&lt;/b&gt;&lt;span style=&quot;font-weight: 700; background-color: initial;&quot;&gt;CreateRoomService&lt;/span&gt;&lt;/p&gt;&lt;hr size=&quot;1&quot; style=&quot;border-style:solid;&quot;&gt;&lt;p style=&quot;margin:0px;margin-left:4px;&quot;&gt;&lt;br&gt;&lt;/p&gt;&lt;hr size=&quot;1&quot; style=&quot;border-style:solid;&quot;&gt;&lt;p style=&quot;margin:0px;margin-left:4px;&quot;&gt;&lt;span style=&quot;text-align: center; background-color: initial;&quot;&gt;+ createChatRoom(String roomName, roomMax)&amp;nbsp;&lt;/span&gt;&lt;span style=&quot;text-align: center; background-color: initial;&quot;&gt;: void&lt;/span&gt;&lt;br&gt;&lt;/p&gt;" style="verticalAlign=top;align=left;overflow=fill;html=1;whiteSpace=wrap;" vertex="1" parent="1">
          <mxGeometry x="-670" y="735" width="311" height="90" as="geometry" />
        </mxCell>
        <mxCell id="s_LERoi7OjflqJZzMfnl-54" value="" style="endArrow=block;dashed=1;endFill=0;endSize=12;html=1;rounded=0;exitX=0;exitY=0.581;exitDx=0;exitDy=0;entryX=1;entryY=0.5;entryDx=0;entryDy=0;exitPerimeter=0;" edge="1" parent="1" target="s_LERoi7OjflqJZzMfnl-53" source="s_LERoi7OjflqJZzMfnl-50">
          <mxGeometry width="160" relative="1" as="geometry">
            <mxPoint x="-320" y="781" as="sourcePoint" />
            <mxPoint x="-249" y="695" as="targetPoint" />
          </mxGeometry>
        </mxCell>
        <mxCell id="s_LERoi7OjflqJZzMfnl-56" value="&lt;p style=&quot;margin:0px;margin-top:4px;text-align:center;&quot;&gt;&lt;i&gt;&amp;lt;&amp;lt;Interface&amp;gt;&amp;gt;&lt;/i&gt;&lt;br&gt;&lt;b&gt;I&lt;/b&gt;&lt;span style=&quot;font-weight: 700; background-color: initial;&quot;&gt;CreateRoomService&lt;/span&gt;&lt;/p&gt;&lt;hr size=&quot;1&quot; style=&quot;border-style:solid;&quot;&gt;&lt;p style=&quot;margin:0px;margin-left:4px;&quot;&gt;&lt;br&gt;&lt;/p&gt;&lt;hr size=&quot;1&quot; style=&quot;border-style:solid;&quot;&gt;&lt;p style=&quot;margin:0px;margin-left:4px;&quot;&gt;+ getMain(void): MainVO&lt;/p&gt;&lt;div&gt;+ getWatingRoom(void): WatingRoomVO&lt;br&gt;&lt;/div&gt;&lt;div&gt;+ inputChatValue(String chatValue, int roomNumber) : void&lt;/div&gt;&lt;div&gt;+ outputChatValue(void) : ChatValueVO&lt;/div&gt;&lt;div&gt;+ createRoom(String roomName, int roomMax) : void&lt;/div&gt;" style="verticalAlign=top;align=left;overflow=fill;html=1;whiteSpace=wrap;" vertex="1" parent="1">
          <mxGeometry x="635.3299999999999" y="498" width="321" height="150" as="geometry" />
        </mxCell>
        <mxCell id="s_LERoi7OjflqJZzMfnl-57" value="" style="endArrow=block;dashed=1;endFill=0;endSize=12;html=1;rounded=0;exitX=1.003;exitY=0.274;exitDx=0;exitDy=0;exitPerimeter=0;entryX=-0.002;entryY=0.562;entryDx=0;entryDy=0;entryPerimeter=0;" edge="1" parent="1" target="s_LERoi7OjflqJZzMfnl-56" source="s_LERoi7OjflqJZzMfnl-16">
          <mxGeometry width="160" relative="1" as="geometry">
            <mxPoint x="585.66" y="583" as="sourcePoint" />
            <mxPoint x="635.33" y="584.03" as="targetPoint" />
          </mxGeometry>
        </mxCell>
        <mxCell id="s_LERoi7OjflqJZzMfnl-59" value="" style="endArrow=open;endSize=12;dashed=1;html=1;rounded=0;entryX=1;entryY=0.5;entryDx=0;entryDy=0;" edge="1" parent="1" target="s_LERoi7OjflqJZzMfnl-6">
          <mxGeometry width="160" relative="1" as="geometry">
            <mxPoint x="120" y="270" as="sourcePoint" />
            <mxPoint x="300" y="460" as="targetPoint" />
            <Array as="points">
              <mxPoint x="120" y="399" />
            </Array>
          </mxGeometry>
        </mxCell>
        <mxCell id="s_LERoi7OjflqJZzMfnl-60" value="" style="endArrow=open;endSize=12;dashed=1;html=1;rounded=0;exitX=0.476;exitY=1.006;exitDx=0;exitDy=0;exitPerimeter=0;entryX=1.006;entryY=0.872;entryDx=0;entryDy=0;entryPerimeter=0;" edge="1" parent="1" source="s_LERoi7OjflqJZzMfnl-4" target="s_LERoi7OjflqJZzMfnl-25">
          <mxGeometry x="0.5706" y="102" width="160" relative="1" as="geometry">
            <mxPoint x="150" y="380" as="sourcePoint" />
            <mxPoint x="310" y="380" as="targetPoint" />
            <Array as="points">
              <mxPoint x="120" y="534" />
            </Array>
            <mxPoint as="offset" />
          </mxGeometry>
        </mxCell>
        <mxCell id="s_LERoi7OjflqJZzMfnl-61" value="" style="endArrow=open;endSize=12;dashed=1;html=1;rounded=0;entryX=0.999;entryY=1.165;entryDx=0;entryDy=0;entryPerimeter=0;exitX=0.477;exitY=1.007;exitDx=0;exitDy=0;exitPerimeter=0;" edge="1" parent="1" source="s_LERoi7OjflqJZzMfnl-4" target="s_LERoi7OjflqJZzMfnl-36">
          <mxGeometry x="0.5706" y="102" width="160" relative="1" as="geometry">
            <mxPoint x="120" y="270" as="sourcePoint" />
            <mxPoint y="704" as="targetPoint" />
            <Array as="points">
              <mxPoint x="120" y="656" />
            </Array>
            <mxPoint as="offset" />
          </mxGeometry>
        </mxCell>
        <mxCell id="s_LERoi7OjflqJZzMfnl-62" value="" style="endArrow=open;endSize=12;dashed=1;html=1;rounded=0;entryX=1;entryY=0.467;entryDx=0;entryDy=0;entryPerimeter=0;exitX=0.477;exitY=1.027;exitDx=0;exitDy=0;exitPerimeter=0;" edge="1" parent="1" source="s_LERoi7OjflqJZzMfnl-4" target="s_LERoi7OjflqJZzMfnl-51">
          <mxGeometry x="0.5706" y="102" width="160" relative="1" as="geometry">
            <mxPoint x="130" y="281" as="sourcePoint" />
            <mxPoint x="10" y="711" as="targetPoint" />
            <Array as="points">
              <mxPoint x="120" y="795" />
            </Array>
            <mxPoint as="offset" />
          </mxGeometry>
        </mxCell>
        <mxCell id="s_LERoi7OjflqJZzMfnl-63" value="" style="endArrow=open;endSize=12;dashed=1;html=1;rounded=0;exitX=1;exitY=0.5;exitDx=0;exitDy=0;entryX=-0.001;entryY=0.356;entryDx=0;entryDy=0;entryPerimeter=0;" edge="1" parent="1" source="s_LERoi7OjflqJZzMfnl-8" target="s_LERoi7OjflqJZzMfnl-16">
          <mxGeometry width="160" relative="1" as="geometry">
            <mxPoint x="10" y="610" as="sourcePoint" />
            <mxPoint x="170" y="610" as="targetPoint" />
            <Array as="points">
              <mxPoint x="170" y="433" />
              <mxPoint x="170" y="591" />
            </Array>
          </mxGeometry>
        </mxCell>
        <mxCell id="s_LERoi7OjflqJZzMfnl-64" value="" style="endArrow=open;endSize=12;dashed=1;html=1;rounded=0;exitX=1.001;exitY=0.583;exitDx=0;exitDy=0;exitPerimeter=0;" edge="1" parent="1" source="s_LERoi7OjflqJZzMfnl-27">
          <mxGeometry width="160" relative="1" as="geometry">
            <mxPoint x="10" y="443" as="sourcePoint" />
            <mxPoint x="250" y="590" as="targetPoint" />
            <Array as="points">
              <mxPoint x="170" y="560" />
              <mxPoint x="170" y="590" />
            </Array>
          </mxGeometry>
        </mxCell>
        <mxCell id="s_LERoi7OjflqJZzMfnl-66" value="" style="endArrow=open;endSize=12;dashed=1;html=1;rounded=0;exitX=1;exitY=0.5;exitDx=0;exitDy=0;entryX=0;entryY=0.354;entryDx=0;entryDy=0;entryPerimeter=0;" edge="1" parent="1" source="s_LERoi7OjflqJZzMfnl-38" target="s_LERoi7OjflqJZzMfnl-16">
          <mxGeometry width="160" relative="1" as="geometry">
            <mxPoint x="10" y="570" as="sourcePoint" />
            <mxPoint x="260" y="600" as="targetPoint" />
            <Array as="points">
              <mxPoint x="170" y="680" />
              <mxPoint x="170" y="590" />
            </Array>
          </mxGeometry>
        </mxCell>
        <mxCell id="s_LERoi7OjflqJZzMfnl-67" value="" style="endArrow=open;endSize=12;dashed=1;html=1;rounded=0;exitX=1;exitY=0.5;exitDx=0;exitDy=0;" edge="1" parent="1" source="s_LERoi7OjflqJZzMfnl-52">
          <mxGeometry width="160" relative="1" as="geometry">
            <mxPoint x="10" y="690" as="sourcePoint" />
            <mxPoint x="250" y="590" as="targetPoint" />
            <Array as="points">
              <mxPoint x="170" y="812" />
              <mxPoint x="170" y="590" />
            </Array>
          </mxGeometry>
        </mxCell>
        <mxCell id="s_LERoi7OjflqJZzMfnl-68" value="" style="endArrow=open;endFill=1;endSize=12;html=1;rounded=0;exitX=0.5;exitY=0;exitDx=0;exitDy=0;entryX=0.519;entryY=0.983;entryDx=0;entryDy=0;entryPerimeter=0;" edge="1" parent="1" source="s_LERoi7OjflqJZzMfnl-5" target="s_LERoi7OjflqJZzMfnl-12">
          <mxGeometry width="160" relative="1" as="geometry">
            <mxPoint x="-290" y="470" as="sourcePoint" />
            <mxPoint x="-320" y="250" as="targetPoint" />
            <Array as="points">
              <mxPoint x="-160" y="320" />
              <mxPoint x="-320" y="320" />
            </Array>
          </mxGeometry>
        </mxCell>
        <mxCell id="s_LERoi7OjflqJZzMfnl-69" value="" style="endArrow=open;endFill=1;endSize=12;html=1;rounded=0;exitX=0.5;exitY=0;exitDx=0;exitDy=0;entryX=0.199;entryY=1.002;entryDx=0;entryDy=0;entryPerimeter=0;" edge="1" parent="1" target="s_LERoi7OjflqJZzMfnl-33">
          <mxGeometry width="160" relative="1" as="geometry">
            <mxPoint x="-161" y="485" as="sourcePoint" />
            <mxPoint x="-680.75" y="301.12199999999996" as="targetPoint" />
            <Array as="points">
              <mxPoint x="-161" y="470" />
              <mxPoint x="-680" y="470" />
            </Array>
          </mxGeometry>
        </mxCell>
        <mxCell id="s_LERoi7OjflqJZzMfnl-71" value="" style="endArrow=open;endFill=1;endSize=12;html=1;rounded=0;entryX=0.5;entryY=0;entryDx=0;entryDy=0;" edge="1" parent="1" target="s_LERoi7OjflqJZzMfnl-41">
          <mxGeometry width="160" relative="1" as="geometry">
            <mxPoint x="-161" y="700" as="sourcePoint" />
            <mxPoint x="-530" y="820" as="targetPoint" />
            <Array as="points">
              <mxPoint x="-161" y="720" />
              <mxPoint x="200" y="720" />
            </Array>
          </mxGeometry>
        </mxCell>
        <mxCell id="s_LERoi7OjflqJZzMfnl-72" value="" style="endArrow=open;endFill=1;endSize=12;html=1;rounded=0;entryX=0.472;entryY=0.006;entryDx=0;entryDy=0;exitX=0.499;exitY=0.989;exitDx=0;exitDy=0;exitPerimeter=0;entryPerimeter=0;" edge="1" parent="1" source="s_LERoi7OjflqJZzMfnl-38" target="s_LERoi7OjflqJZzMfnl-45">
          <mxGeometry width="160" relative="1" as="geometry">
            <mxPoint x="-151" y="710" as="sourcePoint" />
            <mxPoint x="209" y="890" as="targetPoint" />
            <Array as="points">
              <mxPoint x="-160" y="720" />
              <mxPoint x="480" y="720" />
            </Array>
          </mxGeometry>
        </mxCell>
      </root>
    </mxGraphModel>
  </diagram>
</mxfile>
